<svg viewBox="0 0 100 100" xmlns="http://www.w3.org/2000/svg">
<g clip-path="url(#clip0_3_153)">
<rect width="100" height="100" fill="none"/>
<path fill-rule="evenodd" clip-rule="evenodd" d="M100 3.34524V10.4163V17.4874V24.5584V31.6295V38.7006V45.7716V52.8427V59.9138V66.9849V74.0559V81.127V88.1981V95.2691V100H95.2691H88.1981H81.127H74.0559H66.9849H59.9138H52.8427H45.7717H38.7006H31.6295H24.5584H17.4874H10.4163H3.34525H0V96.2742V89.2031V82.132V75.061V67.9899V60.9188V53.8478V46.7767V39.7056V32.6346V25.5635V18.4924V11.4214V4.35029V0H4.35029H11.4214H18.4924H25.5635H32.6346H39.7056H46.7767H53.8478H60.9188H67.9899H75.061H82.132H89.2031H96.2742H100V3.34524ZM91.2742 5H95V8.34524L8.34525 95H5V91.2742L91.2742 5ZM84.2031 5L5 84.2031V77.132L77.132 5H84.2031ZM70.061 5L5 70.061V62.9899L62.9899 5H70.061ZM55.9188 5L5 55.9188V48.8478L48.8478 5H55.9188ZM41.7767 5L5 41.7767V34.7056L34.7056 5H41.7767ZM27.6346 5L5 27.6346V20.5635L20.5635 5H27.6346ZM13.4924 5L5 13.4924V6.42136L6.42136 5H13.4924ZM15.4163 95H22.4874L95 22.4874V15.4163L15.4163 95ZM95 29.5584L29.5584 95H36.6295L95 36.6295V29.5584ZM95 43.7006L43.7006 95H50.7717L95 50.7716V43.7006ZM95 57.8427L57.8427 95H64.9138L95 64.9138V57.8427ZM95 71.9849L71.9849 95H79.0559L95 79.0559V71.9849ZM95 86.127L86.127 95H93.1981L95 93.1981V86.127Z"/>
</g>
<defs>
<clipPath id="clip0_3_153">
<rect width="100" height="100" fill="none"/>
</clipPath>
</defs>
</svg>
