<svg  viewBox="0 0 100 100" xmlns="http://www.w3.org/2000/svg">
<g clip-path="url(#clip0_1_3)">
<rect width="100" height="100" fill="none"/>
<path fill-rule="evenodd" clip-rule="evenodd" d="M44.581 94.6771L94.6771 44.581C94.4338 42.5544 94.0559 40.5692 93.5524 38.6346L38.6346 93.5524C40.5692 94.0559 42.5544 94.4338 44.581 94.6771ZM51.349 94.9802C54.0944 94.8993 56.7782 94.5726 59.379 94.0212L94.0212 59.379C94.5726 56.7782 94.8993 54.0944 94.9802 51.349L51.349 94.9802ZM70.2987 90.1726L90.1726 70.2987C85.8405 78.8552 78.8552 85.8405 70.2987 90.1726ZM33.3118 91.8041L91.8041 33.3118C91.1433 31.658 90.3872 30.0525 89.5426 28.5023L28.5023 89.5426C30.0525 90.3872 31.658 91.1433 33.3118 91.8041ZM24.141 86.8328L86.8328 24.141C85.8655 22.7658 84.8231 21.4471 83.7116 20.1911L20.1911 83.7116C21.4471 84.8231 22.7658 85.8655 24.141 86.8328ZM13.0958 83.7359L13.0929 83.7388C13.5876 84.2776 14.0939 84.8056 14.6116 85.3222C23.6624 94.3899 36.176 100 50 100C77.6142 100 100 77.6142 100 50C100 36.1763 94.3901 23.6629 85.3227 14.6121C84.8059 14.0943 84.2778 13.5877 83.7388 13.0929L83.7359 13.0958C82.5009 11.9662 81.2091 10.8978 79.8652 9.89542L79.8748 9.88582C78.5171 8.86914 77.106 7.91988 75.6465 7.04302L75.6299 7.05965C74.1371 6.16672 72.5938 5.34942 71.0054 4.61306L71.0297 4.58879C69.3935 3.82628 67.7091 3.14971 65.9825 2.5649L65.9496 2.5978C64.1418 1.98977 62.2879 1.48226 60.3944 1.08191L60.4375 1.03879C58.4287 0.609323 56.3752 0.300513 54.2849 0.120313L54.2289 0.176316C52.8348 0.059557 51.4243 0 50 0C49.0808 0 48.1674 0.0248041 47.2604 0.0737801L47.3342 0C44.5455 0.142821 41.8172 0.514128 39.1675 1.09557L39.0634 1.19971C35.2623 2.04786 31.6243 3.32877 28.204 4.98804L28.3938 4.79825C18.0842 9.72712 9.72712 18.0842 4.79825 28.3938L4.98804 28.204C3.32877 31.6243 2.04786 35.2622 1.19971 39.0634L1.09557 39.1675C0.514128 41.8172 0.142821 44.5455 0 47.3342L0.0737801 47.2604C0.0248041 48.1674 0 49.0808 0 50C0 51.4243 0.059557 52.8348 0.176316 54.2289L0.120313 54.2849C0.300513 56.3752 0.609323 58.4287 1.03879 60.4375L1.08191 60.3944C1.48226 62.2879 1.98977 64.1418 2.5978 65.9496L2.5649 65.9825C3.14971 67.7091 3.82628 69.3935 4.58879 71.0297L4.61306 71.0054C5.34942 72.5938 6.16671 74.1371 7.05965 75.6299L7.04302 75.6465C7.91988 77.106 8.86914 78.5171 9.88582 79.8748L9.89542 79.8652C10.8978 81.2091 11.9662 82.5009 13.0958 83.7359ZM16.6352 80.1964L80.1964 16.6352C78.9547 15.5107 77.6499 14.4545 76.2879 13.4727L13.4727 76.2879C14.4545 77.6499 15.5107 78.9547 16.6352 80.1964ZM10.7188 71.9707L71.9707 10.7188C70.4371 9.85918 68.848 9.08677 67.2102 8.40829L8.40829 67.2102C9.08677 68.848 9.85918 70.4371 10.7188 71.9707ZM6.60252 61.9449L61.9449 6.60252C60.0345 6.07789 58.0733 5.67603 56.0704 5.40595L5.40595 56.0704C5.67603 58.0733 6.07789 60.0345 6.60252 61.9449ZM5.0039 49.4014L49.4014 5.0039C46.7178 5.03889 44.0909 5.30878 41.5402 5.79396L5.79396 41.5402C5.30878 44.0909 5.03889 46.7178 5.0039 49.4014ZM31.1254 9.13776L9.13776 31.1254C13.6186 21.4409 21.4409 13.6186 31.1254 9.13776Z"/>
</g>
<defs>
<clipPath id="clip0_1_3">
<rect width="100" height="100" fill="none"/>
</clipPath>
</defs>
</svg>
