<svg viewBox="0 0 100 100" xmlns="http://www.w3.org/2000/svg">
<rect width="100" height="100" fill="none"/>
<path fill-rule="evenodd" clip-rule="evenodd" d="M43.877 16.0028L48.4974 8L49.7355 10.1443L49.8798 10L52.468 14.4828L52.3236 14.6272L54.9118 19.1101L55.0562 18.9657L57.6444 23.4486L57.5 23.593L60.0882 28.0758L60.2325 27.9315L62.8207 32.4144L62.6764 32.5587L65.2646 37.0416L65.4089 36.8972L67.9971 41.3801L67.8528 41.5245L70.441 46.0073L70.5853 45.863L73.1735 50.3459L73.0292 50.4902L75.6174 54.9731L75.7617 54.8288L78.3499 59.3116L78.2055 59.456L80.7937 63.9388L80.9381 63.7945L83.5263 68.2774L83.3819 68.4217L85.9701 72.9046L86.1145 72.7603L88.7026 77.2431L88.5583 77.3875L91.1465 81.8704L91.2908 81.726L93.879 86.2089L93.7347 86.3532L96.3229 90.8361L96.4672 90.6918L96.9948 91.6057H96.7672L96.9948 92H0L0.227677 91.6057H0L4.70133 83.4627L5.24002 82.924L14.8993 66.1937L14.3606 66.7324L24.0198 50.0021L24.5585 49.4634L34.2178 32.733L33.6791 33.2717L43.3383 16.5414L43.877 16.0028ZM47.8781 19.0728L38.2188 35.8031L51.2516 22.7703L48.6634 18.2874L47.8781 19.0728ZM53.8398 27.2532L28.5595 52.5334L18.9003 69.2638L56.428 31.7361L53.8398 27.2532ZM59.0161 36.219L9.24099 85.9941L8.66025 87H15.3062L61.6043 40.7018L59.0161 36.219ZM64.1925 45.1847L22.3772 87H29.4483L66.7807 49.6676L64.1925 45.1847ZM69.3689 54.1505L36.5194 87H43.5905L71.9571 58.6334L69.3689 54.1505ZM74.5453 63.1162L50.6615 87H57.7326L77.1335 67.5991L74.5453 63.1162ZM79.7217 72.082L64.8037 87H71.8747L82.3099 76.5649L79.7217 72.082ZM84.898 81.0477L78.9458 87H86.0169L87.4862 85.5306L84.898 81.0477Z"/>
</svg>
